<svg xmlns="http://www.w3.org/2000/svg" viewBox="0 0 349.2 165.68"><defs><style>.cls-1,.cls-5{isolation:isolate;}.cls-2,.cls-5{fill:#fff;}.cls-3{fill:#f6b731;}.cls-4{fill:#f5f5f5;}.cls-5{font-size:41px;font-family:SFOrsonCasualHeavy, SF Orson Casual Heavy;letter-spacing:0.42em;}</style></defs><title>Asset 1</title><g id="Layer_2" data-name="Layer 2"><g id="Layer_1-2" data-name="Layer 1"><g id="COMMERCE" class="cls-1"><g class="cls-1"><path class="cls-2" d="M10.71,165a.62.62,0,0,1-.05.25.66.66,0,0,1-.14.2.66.66,0,0,1-.46.18H4.65a.63.63,0,0,1-.45-.19A.6.6,0,0,1,4,165v-8.35a.57.57,0,0,1,.05-.24.74.74,0,0,1,.15-.21.67.67,0,0,1,.21-.14.59.59,0,0,1,.24-.05h5.41a.66.66,0,0,1,.65.64.62.62,0,0,1-.05.25.7.7,0,0,1-.14.21.67.67,0,0,1-.21.14.61.61,0,0,1-.25.05H5.3v2.88H8.89a.56.56,0,0,1,.24.06.74.74,0,0,1,.21.14.67.67,0,0,1,.14.21.58.58,0,0,1,.05.24.66.66,0,0,1-.64.65H5.3v2.88h4.76a.63.63,0,0,1,.46.2A.62.62,0,0,1,10.71,165Z"/><path class="cls-2" d="M23.17,165a.62.62,0,0,1-.05.25.66.66,0,0,1-.14.2.66.66,0,0,1-.46.18.72.72,0,0,1-.54-.27l-6-6.92V165a.62.62,0,0,1-.05.25.64.64,0,0,1-.35.34.65.65,0,0,1-.25,0,.63.63,0,0,1-.45-.19.6.6,0,0,1-.19-.45v-8.35a.57.57,0,0,1,.05-.24.74.74,0,0,1,.15-.21.67.67,0,0,1,.21-.14.59.59,0,0,1,.24-.05.58.58,0,0,1,.47.19l6.06,7v-6.57a.56.56,0,0,1,.05-.24.74.74,0,0,1,.15-.21.66.66,0,0,1,.21-.14.59.59,0,0,1,.24-.05.66.66,0,0,1,.65.64Z"/><path class="cls-2" d="M35.63,165a.62.62,0,0,1-.05.25.66.66,0,0,1-.14.2.66.66,0,0,1-.46.18.63.63,0,0,1-.45-.19.6.6,0,0,1-.19-.45v-3.53H28.46V165a.62.62,0,0,1-.05.25.64.64,0,0,1-.35.34.65.65,0,0,1-.25,0,.63.63,0,0,1-.45-.19.6.6,0,0,1-.19-.45v-8.35a.57.57,0,0,1,.05-.24.74.74,0,0,1,.15-.21.67.67,0,0,1,.21-.14.59.59,0,0,1,.24-.05.62.62,0,0,1,.46.19.61.61,0,0,1,.19.45v3.53h5.88v-3.53a.56.56,0,0,1,.05-.24.74.74,0,0,1,.15-.21.66.66,0,0,1,.21-.14.59.59,0,0,1,.24-.05.66.66,0,0,1,.65.64Z"/><path class="cls-2" d="M47.24,165a.63.63,0,0,1,0,.25.61.61,0,0,1-.34.34.65.65,0,0,1-.25,0,.61.61,0,0,1-.61-.39l-.8-2h-4l-.8,2a.61.61,0,0,1-.61.39.63.63,0,0,1-.24,0,.61.61,0,0,1-.2-.13.67.67,0,0,1-.14-.2.62.62,0,0,1-.05-.25.58.58,0,0,1,0-.25l3.38-8.27a.65.65,0,0,1,.61-.47.64.64,0,0,1,.61.47l3.38,8.27A.57.57,0,0,1,47.24,165Zm-2.58-3-1.47-3.62L41.73,162Z"/><path class="cls-2" d="M59.24,165a.62.62,0,0,1-.05.25.66.66,0,0,1-.14.2.66.66,0,0,1-.46.18.72.72,0,0,1-.54-.27l-6-6.92V165a.62.62,0,0,1-.05.25.64.64,0,0,1-.35.34.65.65,0,0,1-.25,0,.63.63,0,0,1-.45-.19.6.6,0,0,1-.19-.45v-8.35a.57.57,0,0,1,.05-.24.74.74,0,0,1,.15-.21.67.67,0,0,1,.21-.14.59.59,0,0,1,.24-.05.58.58,0,0,1,.47.19l6.06,7v-6.57a.56.56,0,0,1,.05-.24.74.74,0,0,1,.15-.21.66.66,0,0,1,.21-.14.59.59,0,0,1,.24-.05.66.66,0,0,1,.65.64Z"/><path class="cls-2" d="M71.36,163.82q0,.42-.72.9a5.2,5.2,0,0,1-2.88,1,4.81,4.81,0,0,1,0-9.63,5,5,0,0,1,3.09,1.12,1,1,0,0,1,.51.75.63.63,0,0,1-.2.45.61.61,0,0,1-.45.19.54.54,0,0,1-.22,0l-.21-.12-.2-.17-.19-.17a3.21,3.21,0,0,0-2.13-.72,3.53,3.53,0,0,0,0,7.05,3.22,3.22,0,0,0,2.13-.72l.19-.17.18-.17a.78.78,0,0,1,.46-.17.61.61,0,0,1,.45.19A.63.63,0,0,1,71.36,163.82Z"/><path class="cls-2" d="M76.65,165a.62.62,0,0,1-.05.25.64.64,0,0,1-.35.34.65.65,0,0,1-.25,0,.63.63,0,0,1-.45-.19.6.6,0,0,1-.19-.45v-8.35a.57.57,0,0,1,.05-.24.74.74,0,0,1,.15-.21.67.67,0,0,1,.21-.14.59.59,0,0,1,.24-.05.62.62,0,0,1,.46.19.61.61,0,0,1,.19.45Z"/><path class="cls-2" d="M89.11,165a.62.62,0,0,1-.05.25.66.66,0,0,1-.14.2.66.66,0,0,1-.46.18.72.72,0,0,1-.54-.27l-6-6.92V165a.62.62,0,0,1-.05.25.64.64,0,0,1-.35.34.65.65,0,0,1-.25,0,.63.63,0,0,1-.45-.19.6.6,0,0,1-.19-.45v-8.35a.57.57,0,0,1,.05-.24.74.74,0,0,1,.15-.21.67.67,0,0,1,.21-.14.59.59,0,0,1,.24-.05.58.58,0,0,1,.47.19l6.06,7v-6.57a.56.56,0,0,1,.05-.24.74.74,0,0,1,.15-.21.66.66,0,0,1,.21-.14.59.59,0,0,1,.24-.05.66.66,0,0,1,.65.64Z"/><path class="cls-2" d="M101.38,165a.59.59,0,0,1-.2.45.64.64,0,0,1-.45.19q-.65,0-.65-.79a4,4,0,0,1-2.46.79,4.81,4.81,0,0,1,0-9.63,5.15,5.15,0,0,1,2.88,1q.72.49.72.9a.63.63,0,0,1-.2.45.61.61,0,0,1-.45.19.78.78,0,0,1-.46-.18l-.37-.33a3.15,3.15,0,0,0-2.12-.72,3.53,3.53,0,0,0,0,7.05,3.54,3.54,0,0,0,2.46-1v-1.88H97a.66.66,0,0,1-.64-.65.6.6,0,0,1,.05-.24.68.68,0,0,1,.14-.21.74.74,0,0,1,.21-.14.56.56,0,0,1,.24-.06h3.76a.69.69,0,0,1,.65.65Z"/><path class="cls-2" d="M120.42,165a.62.62,0,0,1-.05.25.66.66,0,0,1-.14.2.66.66,0,0,1-.46.18h-5.41a.63.63,0,0,1-.45-.19.6.6,0,0,1-.19-.45v-8.35a.57.57,0,0,1,.05-.24.74.74,0,0,1,.15-.21.67.67,0,0,1,.21-.14.59.59,0,0,1,.24-.05h5.41a.66.66,0,0,1,.65.64.62.62,0,0,1-.05.25.7.7,0,0,1-.14.21.67.67,0,0,1-.21.14.61.61,0,0,1-.25.05H115v2.88h3.59a.56.56,0,0,1,.24.06.74.74,0,0,1,.21.14.67.67,0,0,1,.14.21.58.58,0,0,1,.05.24.66.66,0,0,1-.64.65H115v2.88h4.76a.63.63,0,0,1,.46.2A.62.62,0,0,1,120.42,165Z"/><path class="cls-2" d="M132.55,163.82q0,.42-.72.9a5.2,5.2,0,0,1-2.88,1,4.81,4.81,0,0,1,0-9.63,5,5,0,0,1,3.09,1.12,1,1,0,0,1,.51.75.63.63,0,0,1-.2.45.61.61,0,0,1-.45.19.54.54,0,0,1-.22,0l-.21-.12-.2-.17-.19-.17a3.21,3.21,0,0,0-2.13-.72,3.53,3.53,0,0,0,0,7.05,3.22,3.22,0,0,0,2.13-.72l.19-.17.18-.17a.78.78,0,0,1,.46-.17.61.61,0,0,1,.45.19A.63.63,0,0,1,132.55,163.82Z"/><path class="cls-2" d="M145.89,160.87a4.87,4.87,0,1,1-1.43-3.39A4.61,4.61,0,0,1,145.89,160.87Zm-1.29,0a3.55,3.55,0,1,0-1,2.49A3.4,3.4,0,0,0,144.59,160.87Z"/><path class="cls-2" d="M158.64,165a.6.6,0,0,1-.05.25.63.63,0,0,1-.14.2.65.65,0,0,1-.21.13.63.63,0,0,1-.24,0,.66.66,0,0,1-.45-.18.63.63,0,0,1-.14-.2.6.6,0,0,1-.05-.25v-6.19l-2.82,4.37a.51.51,0,0,1-.41.29c-.13,0-.29-.14-.47-.41l-2.76-4.25V165a.62.62,0,0,1-.05.25.64.64,0,0,1-.35.34.65.65,0,0,1-.25,0,.63.63,0,0,1-.45-.19.6.6,0,0,1-.19-.45v-8.35a.57.57,0,0,1,.05-.24.74.74,0,0,1,.15-.21.67.67,0,0,1,.21-.14.59.59,0,0,1,.24-.05.61.61,0,0,1,.55.29l3.33,5.13,3.33-5.13a.63.63,0,0,1,.56-.29.59.59,0,0,1,.24.05.67.67,0,0,1,.35.35.58.58,0,0,1,.05.24Z"/><path class="cls-2" d="M171.7,165a.6.6,0,0,1-.05.25.63.63,0,0,1-.14.2.65.65,0,0,1-.21.13.63.63,0,0,1-.24,0,.66.66,0,0,1-.45-.18.63.63,0,0,1-.14-.2.6.6,0,0,1-.05-.25v-6.19l-2.82,4.37a.51.51,0,0,1-.41.29c-.13,0-.29-.14-.47-.41l-2.76-4.25V165a.62.62,0,0,1-.05.25.64.64,0,0,1-.35.34.65.65,0,0,1-.25,0,.63.63,0,0,1-.45-.19.6.6,0,0,1-.19-.45v-8.35a.57.57,0,0,1,.05-.24.74.74,0,0,1,.15-.21.67.67,0,0,1,.21-.14.59.59,0,0,1,.24-.05.61.61,0,0,1,.55.29l3.33,5.13,3.33-5.13a.63.63,0,0,1,.56-.29.59.59,0,0,1,.24.05.67.67,0,0,1,.35.35.58.58,0,0,1,.05.24Z"/><path class="cls-2" d="M182.4,165a.62.62,0,0,1-.05.25.66.66,0,0,1-.14.2.66.66,0,0,1-.46.18h-5.41a.63.63,0,0,1-.45-.19.6.6,0,0,1-.19-.45v-8.35a.57.57,0,0,1,.05-.24.74.74,0,0,1,.15-.21.67.67,0,0,1,.21-.14.59.59,0,0,1,.24-.05h5.41a.66.66,0,0,1,.65.64.62.62,0,0,1-.05.25.7.7,0,0,1-.14.21.67.67,0,0,1-.21.14.61.61,0,0,1-.25.05H177v2.88h3.59a.56.56,0,0,1,.24.06.74.74,0,0,1,.21.14.67.67,0,0,1,.14.21.58.58,0,0,1,.05.24.66.66,0,0,1-.64.65H177v2.88h4.76a.63.63,0,0,1,.46.2A.62.62,0,0,1,182.4,165Z"/><path class="cls-2" d="M193.68,165a.6.6,0,0,1-.05.25.63.63,0,0,1-.14.2.65.65,0,0,1-.21.13.63.63,0,0,1-.24,0,.62.62,0,0,1-.45-.17l-2.81-2.81h-2.09V165a.62.62,0,0,1-.05.25.64.64,0,0,1-.35.34.65.65,0,0,1-.25,0,.63.63,0,0,1-.45-.19.6.6,0,0,1-.19-.45v-9h4a3.34,3.34,0,0,1,3.31,3.31,3.25,3.25,0,0,1-.63,1.94,3.21,3.21,0,0,1-1.62,1.21l2.06,2.07A.62.62,0,0,1,193.68,165Zm-1.29-5.68a2,2,0,0,0-2-2h-2.68v4.06h2.68a1.93,1.93,0,0,0,1.43-.6A2,2,0,0,0,192.4,159.37Z"/><path class="cls-2" d="M205.52,163.82q0,.42-.72.9a5.2,5.2,0,0,1-2.88,1,4.81,4.81,0,0,1,0-9.63,5,5,0,0,1,3.09,1.12,1,1,0,0,1,.51.75.63.63,0,0,1-.2.45.61.61,0,0,1-.45.19.54.54,0,0,1-.22,0l-.21-.12-.2-.17-.19-.17a3.21,3.21,0,0,0-2.13-.72,3.53,3.53,0,0,0,0,7.05,3.22,3.22,0,0,0,2.13-.72l.19-.17.18-.17a.78.78,0,0,1,.46-.17.61.61,0,0,1,.45.19A.63.63,0,0,1,205.52,163.82Z"/><path class="cls-2" d="M216.21,165a.62.62,0,0,1-.05.25.66.66,0,0,1-.14.2.66.66,0,0,1-.46.18h-5.41a.63.63,0,0,1-.45-.19.6.6,0,0,1-.19-.45v-8.35a.57.57,0,0,1,.05-.24.74.74,0,0,1,.15-.21.67.67,0,0,1,.21-.14.59.59,0,0,1,.24-.05h5.41a.66.66,0,0,1,.65.64.62.62,0,0,1-.05.25.7.7,0,0,1-.14.21.67.67,0,0,1-.21.14.61.61,0,0,1-.25.05h-4.76v2.88h3.59a.56.56,0,0,1,.24.06.74.74,0,0,1,.21.14.67.67,0,0,1,.14.21.58.58,0,0,1,.05.24.66.66,0,0,1-.64.65h-3.59v2.88h4.76a.63.63,0,0,1,.46.2A.62.62,0,0,1,216.21,165Z"/><path class="cls-2" d="M235.26,165a.62.62,0,0,1-.05.25.66.66,0,0,1-.14.2.66.66,0,0,1-.46.18H229.2a.63.63,0,0,1-.45-.19.6.6,0,0,1-.19-.45v-8.35a.57.57,0,0,1,.05-.24.74.74,0,0,1,.15-.21.67.67,0,0,1,.21-.14.59.59,0,0,1,.24-.05h5.41a.66.66,0,0,1,.65.64.62.62,0,0,1-.05.25.7.7,0,0,1-.14.21.67.67,0,0,1-.21.14.61.61,0,0,1-.25.05h-4.76v2.88h3.59a.56.56,0,0,1,.24.06.74.74,0,0,1,.21.14.67.67,0,0,1,.14.21.58.58,0,0,1,.05.24.66.66,0,0,1-.64.65h-3.59v2.88h4.76a.63.63,0,0,1,.46.2A.62.62,0,0,1,235.26,165Z"/><path class="cls-2" d="M247.27,165a.62.62,0,0,1-.05.25.63.63,0,0,1-.14.2.66.66,0,0,1-.45.18.63.63,0,0,1-.49-.22l-3-3.59-3,3.59a.68.68,0,0,1-.75.17.62.62,0,0,1-.2-.13.61.61,0,0,1-.13-.2.63.63,0,0,1,0-.25.62.62,0,0,1,.14-.4l3.18-3.78-3.18-3.78a.58.58,0,0,1-.14-.4.61.61,0,0,1,0-.24.64.64,0,0,1,.34-.35.61.61,0,0,1,.25-.05.62.62,0,0,1,.5.23l3,3.58,3-3.58a.61.61,0,0,1,.49-.23.62.62,0,0,1,.45.19.61.61,0,0,1,.19.45.6.6,0,0,1-.15.41L244,160.87l3.16,3.76A.6.6,0,0,1,247.27,165Z"/><path class="cls-2" d="M258.26,159.37a3.22,3.22,0,0,1-1,2.36,3.18,3.18,0,0,1-2.34,1h-2.68V165a.62.62,0,0,1-.05.25.64.64,0,0,1-.35.34.65.65,0,0,1-.25,0,.63.63,0,0,1-.45-.19A.6.6,0,0,1,251,165v-9h4a3.34,3.34,0,0,1,3.31,3.31Zm-1.29,0a2,2,0,0,0-2-2h-2.68v4.06h2.68a1.93,1.93,0,0,0,1.43-.6A2,2,0,0,0,257,159.37Z"/><path class="cls-2" d="M268.67,165a.62.62,0,0,1-.05.25.66.66,0,0,1-.14.2.66.66,0,0,1-.46.18h-5.41a.63.63,0,0,1-.45-.19A.6.6,0,0,1,262,165v-8.35a.57.57,0,0,1,.05-.24.74.74,0,0,1,.15-.21.67.67,0,0,1,.21-.14.59.59,0,0,1,.24-.05H268a.66.66,0,0,1,.65.64.62.62,0,0,1-.05.25.7.7,0,0,1-.14.21.67.67,0,0,1-.21.14.61.61,0,0,1-.25.05h-4.76v2.88h3.59a.56.56,0,0,1,.24.06.74.74,0,0,1,.21.14.67.67,0,0,1,.14.21.58.58,0,0,1,.05.24.66.66,0,0,1-.64.65h-3.59v2.88H268a.63.63,0,0,1,.46.2A.62.62,0,0,1,268.67,165Z"/><path class="cls-2" d="M280,165a.6.6,0,0,1-.05.25.63.63,0,0,1-.14.2.65.65,0,0,1-.21.13.63.63,0,0,1-.24,0,.62.62,0,0,1-.45-.17l-2.81-2.81H274V165a.62.62,0,0,1-.05.25.64.64,0,0,1-.35.34.65.65,0,0,1-.25,0,.63.63,0,0,1-.45-.19.6.6,0,0,1-.19-.45v-9h4a3.34,3.34,0,0,1,3.31,3.31,3.25,3.25,0,0,1-.63,1.94,3.21,3.21,0,0,1-1.62,1.21l2.06,2.07A.62.62,0,0,1,280,165Zm-1.29-5.68a2,2,0,0,0-2-2H274v4.06h2.68a1.93,1.93,0,0,0,1.43-.6A2,2,0,0,0,278.66,159.37Z"/><path class="cls-2" d="M285,165a.62.62,0,0,1-.05.25.64.64,0,0,1-.35.34.65.65,0,0,1-.25,0,.63.63,0,0,1-.45-.19.6.6,0,0,1-.19-.45v-8.35a.57.57,0,0,1,.05-.24.74.74,0,0,1,.15-.21.67.67,0,0,1,.21-.14.59.59,0,0,1,.24-.05.62.62,0,0,1,.46.19.61.61,0,0,1,.19.45Z"/><path class="cls-2" d="M295.65,165a.62.62,0,0,1-.05.25.66.66,0,0,1-.14.2.66.66,0,0,1-.46.18h-5.41a.63.63,0,0,1-.45-.19.6.6,0,0,1-.19-.45v-8.35a.57.57,0,0,1,.05-.24.74.74,0,0,1,.15-.21.67.67,0,0,1,.21-.14.59.59,0,0,1,.24-.05H295a.66.66,0,0,1,.65.64.62.62,0,0,1-.05.25.7.7,0,0,1-.14.21.67.67,0,0,1-.21.14.61.61,0,0,1-.25.05h-4.76v2.88h3.59a.56.56,0,0,1,.24.06.74.74,0,0,1,.21.14.67.67,0,0,1,.14.21.58.58,0,0,1,.05.24.66.66,0,0,1-.64.65h-3.59v2.88H295a.63.63,0,0,1,.46.2A.62.62,0,0,1,295.65,165Z"/><path class="cls-2" d="M308.11,165a.62.62,0,0,1-.05.25.66.66,0,0,1-.14.2.66.66,0,0,1-.46.18.72.72,0,0,1-.54-.27l-6-6.92V165a.62.62,0,0,1-.05.25.64.64,0,0,1-.35.34.65.65,0,0,1-.25,0,.63.63,0,0,1-.45-.19.6.6,0,0,1-.19-.45v-8.35a.57.57,0,0,1,.05-.24.74.74,0,0,1,.15-.21.67.67,0,0,1,.21-.14.59.59,0,0,1,.24-.05.58.58,0,0,1,.47.19l6.06,7v-6.57a.56.56,0,0,1,.05-.24.74.74,0,0,1,.15-.21.66.66,0,0,1,.21-.14.59.59,0,0,1,.24-.05.66.66,0,0,1,.65.64Z"/><path class="cls-2" d="M320.23,163.82q0,.42-.72.9a5.2,5.2,0,0,1-2.88,1,4.81,4.81,0,0,1,0-9.63,5,5,0,0,1,3.09,1.12,1,1,0,0,1,.51.75.63.63,0,0,1-.2.45.61.61,0,0,1-.45.19.54.54,0,0,1-.22,0l-.21-.12-.2-.17-.19-.17a3.21,3.21,0,0,0-2.13-.72,3.53,3.53,0,0,0,0,7.05,3.22,3.22,0,0,0,2.13-.72l.19-.17.18-.17a.78.78,0,0,1,.46-.17.61.61,0,0,1,.45.19A.63.63,0,0,1,320.23,163.82Z"/><path class="cls-2" d="M330.93,165a.62.62,0,0,1-.05.25.66.66,0,0,1-.14.2.66.66,0,0,1-.46.18h-5.41a.63.63,0,0,1-.45-.19.6.6,0,0,1-.19-.45v-8.35a.57.57,0,0,1,.05-.24.74.74,0,0,1,.15-.21.67.67,0,0,1,.21-.14.59.59,0,0,1,.24-.05h5.41a.66.66,0,0,1,.65.64.62.62,0,0,1-.05.25.7.7,0,0,1-.14.21.67.67,0,0,1-.21.14.61.61,0,0,1-.25.05h-4.76v2.88h3.59a.56.56,0,0,1,.24.06.74.74,0,0,1,.21.14.67.67,0,0,1,.14.21.58.58,0,0,1,.05.24.66.66,0,0,1-.64.65h-3.59v2.88h4.76a.63.63,0,0,1,.46.2A.62.62,0,0,1,330.93,165Z"/></g></g><g id="Group_9" data-name="Group 9"><path id="Path_54" data-name="Path 54" class="cls-3" d="M37,82.25a25.59,25.59,0,0,1-7.81,5.06A26.39,26.39,0,0,1,18.38,89.5,18.77,18.77,0,0,1,11,88.13a15.46,15.46,0,0,1-5.44-3.75,16.74,16.74,0,0,1-3.37-5.56A19.36,19.36,0,0,1,1,72q0-8.5,5.31-12.81t15.06-5.06q3.62-.25,7.69-.37t7.19-.25v-2q0-10-11.12-10a35.17,35.17,0,0,0-8.44,1,33.48,33.48,0,0,0-7.44,2.75L5.63,31.38a42.58,42.58,0,0,1,10.31-4.06,50.74,50.74,0,0,1,12.94-1.56q12.87,0,20.13,6.69T56.25,52.5V88.25H37ZM26.13,76.38a19.27,19.27,0,0,0,5.44-.75,20.63,20.63,0,0,0,4.69-2V64.5q-3,.25-5.38.56t-4.62.56q-6.13.75-6.12,5.75A4.59,4.59,0,0,0,21.69,75,6.5,6.5,0,0,0,26.13,76.38ZM128.38,88.25H109.25V80.5a21,21,0,0,1-7.44,6.56A22.92,22.92,0,0,1,90.88,89.5a21.73,21.73,0,0,1-9.62-2.19,23,23,0,0,1-7.81-6.25,30.13,30.13,0,0,1-5.19-9.81,41.4,41.4,0,0,1-1.87-12.87,36.35,36.35,0,0,1,2.56-14.12A30,30,0,0,1,75.81,34a28.11,28.11,0,0,1,10.06-6.19,36,36,0,0,1,12.25-2.06,33.65,33.65,0,0,1,5.75.44,35.9,35.9,0,0,1,4.5,1.06V0h20ZM98.13,74.13a13.21,13.21,0,0,0,10.25-4.25V41.75a21.22,21.22,0,0,0-7.12-1q-7.5,0-11.19,4.63T86.38,58q0,7.13,2.81,11.63T98.13,74.13ZM254.25,44.25h-2.37q-11.88,0-16.75,6v38h-20V27H234.5V37.25a16.87,16.87,0,0,1,5.38-7.87,14.84,14.84,0,0,1,9.5-2.87,19.29,19.29,0,0,1,2.94.19,18.57,18.57,0,0,1,2.44.56Zm8.25,44V27h19.25v8a16.74,16.74,0,0,1,7.44-7.12,22.67,22.67,0,0,1,9.69-2.12,19.75,19.75,0,0,1,10.38,2.56,20.85,20.85,0,0,1,6.94,6.81,29.85,29.85,0,0,1,3.88,9.81,55.86,55.86,0,0,1,1.19,11.69V88.25h-20v-32q0-7.62-2.37-11.19a8.11,8.11,0,0,0-7.25-3.56,10.44,10.44,0,0,0-5.44,1.38,11.55,11.55,0,0,0-3.69,3.37v42Z"/><path id="Subtraction_6" data-name="Subtraction 6" class="cls-4" d="M171.75,89.75a37.8,37.8,0,0,1-14-2.44,28,28,0,0,1-16.5-16.87,36.46,36.46,0,0,1-2.12-12.56,36.47,36.47,0,0,1,2.13-12.56,28,28,0,0,1,16.5-16.87,41.43,41.43,0,0,1,28,0,28,28,0,0,1,16.5,16.88,36.47,36.47,0,0,1,2.13,12.56,36.46,36.46,0,0,1-2.12,12.56,28,28,0,0,1-16.5,16.88A37.8,37.8,0,0,1,171.75,89.75ZM159.35,65.6h0a.48.48,0,0,0-.46.34,5.81,5.81,0,0,1-3.62,3.91h-.1a.48.48,0,0,0,0,.91,5.63,5.63,0,0,1,2.49,1.67h0a6.44,6.44,0,0,1,1.22,2.27.49.49,0,0,0,.45.34h0a.41.41,0,0,0,.38-.18.5.5,0,0,0,.08-.16c0-.08.07-.18.1-.29s.11-.31.19-.5a6.32,6.32,0,0,1,.49-.91l.21-.29a5.39,5.39,0,0,1,1.3-1.25,5.31,5.31,0,0,1,1.21-.62c.37-.14.55-.21.55-.54a.48.48,0,0,0-.33-.46,5.74,5.74,0,0,1-3.72-4,.49.49,0,0,0-.45-.33Zm2.44-8.46h0l-.07,0-.33.08h-.74a.48.48,0,0,0,0,.94h0c6.25,1.15,10.35,5.49,11.54,12.21a.49.49,0,0,0,.46.4h0a.48.48,0,0,0,.47-.4,17,17,0,0,1,2.24-6.08,12.89,12.89,0,0,1,4.45-4.37,14.94,14.94,0,0,1,4.88-1.77.48.48,0,0,0,0-.95,16.41,16.41,0,0,1-2.29-.58,12.91,12.91,0,0,1-6.26-4.42,16.51,16.51,0,0,1-3-7.22.48.48,0,0,0-1,0A16.4,16.4,0,0,1,169,52.53a13,13,0,0,1-6.39,4.36h-.2l-.06,0h0l-.06,0h0l-.33.09h-.16ZM152.9,43.61h0a.47.47,0,0,0-.46.34,5.87,5.87,0,0,1-3.07,3.68l-.4.17-.2.08h-.05a.48.48,0,0,0-.2.13.41.41,0,0,0-.12.33.48.48,0,0,0,.33.46,5.8,5.8,0,0,1,3.72,4,.49.49,0,0,0,.45.34h0a.4.4,0,0,0,.34-.14.48.48,0,0,0,.12-.2V52.7l.08-.22h0c0-.12.09-.25.15-.4a5.55,5.55,0,0,1,2-2.5l.09-.07a5.32,5.32,0,0,1,1.21-.62c.37-.14.55-.21.55-.54a.48.48,0,0,0-.33-.46,5.74,5.74,0,0,1-3.72-4,.49.49,0,0,0-.45-.33Z"/><g id="COMMERCE-2" data-name="COMMERCE" class="cls-1"><text class="cls-5" transform="translate(0 142.42)">COMMERCE</text></g></g></g></g></svg>